<svg width="46" height="28" viewBox="0 0 46 28" fill="none" xmlns="http://www.w3.org/2000/svg">
    <path d="M45.979 16.9273C45.7203 15.6545 43.7801 14.3818 40.8051 13.2364C43.5214 11.9636 44.4268 11.5818 44.4268 11.5818L44.2975 11.2C44.2975 11.2 43.392 11.2 38.8649 12.7273C37.054 12.2182 34.9844 11.7091 32.7855 11.4545C29.0344 10.9455 25.6714 10.8182 23.3431 10.8182V0C23.3431 0 21.9203 0.636363 21.2736 0.890909C20.6268 1.14545 20.6268 1.90909 20.6268 1.90909V10.8182C20.2388 10.8182 19.9801 10.8182 19.9801 10.8182H19.8507V4.45455C19.8507 4.45455 18.4279 5.09091 17.7812 5.34545C17.1344 5.72727 17.1344 6.36364 17.1344 6.36364V11.0727C8.33879 11.7091 3.81161 13.8727 2.38879 14.6364C0.707266 15.5273 -1.75034 17.6909 1.8714 20.2364C4.97574 22.2727 10.6671 23.2909 12.4779 23.5455C8.72683 25.4545 6.52792 26.8545 6.52792 26.8545L6.78661 27.3636C6.78661 27.3636 14.9355 24.1818 23.9899 24.1818H24.1192C27.9997 24.1818 32.0094 23.6727 35.2431 23.1636C43.392 21.6364 46.367 19.2182 45.979 16.9273ZM14.6768 22.4C14.6768 22.4 8.33879 21.7636 5.10509 19.7273C2.00074 17.6909 4.07031 15.9091 5.49314 15.2727C6.52792 14.7636 9.24422 13.4909 14.0301 12.7273V13.4909C14.0301 13.4909 14.0301 19.0909 14.0301 20.8727C14.0301 21.6364 14.5475 21.7636 14.9355 21.6364C15.3236 21.5091 15.841 21.2545 16.0997 21.1273C16.617 20.8727 16.617 20.3636 16.617 20.3636V12.3455C16.8757 12.3455 17.0051 12.3455 17.3931 12.2182V20.4909C17.3931 20.4909 18.9453 19.8545 19.5921 19.6C20.1094 19.3455 20.1094 18.8364 20.1094 18.8364V12.0909C20.2388 12.0909 20.4975 12.0909 20.6268 12.0909C20.6268 12.0909 20.6268 12.0909 20.7562 12.0909V19.0909C20.7562 19.0909 22.3084 18.4545 22.9551 18.2C23.4725 17.9455 23.4725 17.4364 23.4725 17.4364V12.0909C25.542 12.0909 28.3877 12.2182 31.4921 12.6C33.3029 12.8545 34.9844 13.1091 36.4073 13.6182C34.4671 14.2545 32.1388 15.1455 29.2931 16.2909C23.6018 18.4545 18.6866 20.7455 14.9355 22.6545C14.6768 22.4 14.6768 22.4 14.6768 22.4ZM33.5616 22.1455C31.492 22.5273 29.0344 22.6545 26.5768 22.7818C26.8355 22.5273 30.0692 18.7091 36.1486 15.6545C37.1834 15.1455 37.9594 14.7636 38.7355 14.2545C40.9344 15.1455 42.3573 16.0364 42.616 17.0545C42.8747 18.8364 40.417 21 33.5616 22.1455Z" fill="#4274D4"/>
</svg>
